<svg xmlns="http://www.w3.org/2000/svg" xmlns:xlink="http://www.w3.org/1999/xlink" width="5746" zoomAndPan="magnify" viewBox="0 0 4309.5 2873.249953" height="3831" preserveAspectRatio="xMidYMid meet" version="1.0"><defs><g/><clipPath id="86d5d19c8c"><path d="M 102.089844 409 L 2031.335938 409 L 2031.335938 1262 L 102.089844 1262 Z M 102.089844 409 " clip-rule="nonzero"/></clipPath><clipPath id="17bff808ad"><path d="M 743.324219 769.128906 L 1390.402344 769.128906 L 1390.402344 1416 L 743.324219 1416 Z M 743.324219 769.128906 " clip-rule="nonzero"/></clipPath><clipPath id="a4e6b70349"><path d="M 3663 1435 L 4308.6875 1435 L 4308.6875 2169 L 3663 2169 Z M 3663 1435 " clip-rule="nonzero"/></clipPath></defs><path fill="#ffffff" d="M 1690.667969 2119.171875 C 1690.667969 2143.867188 1670.605469 2163.546875 1646.292969 2163.546875 L 1334.519531 2163.546875 C 1309.824219 2163.546875 1290.148438 2143.480469 1290.148438 2119.171875 L 1290.148438 1656.914062 C 1290.148438 1583.214844 1230.339844 1523.40625 1156.640625 1523.40625 L 978.375 1523.40625 C 904.675781 1523.40625 844.867188 1583.214844 844.867188 1656.914062 L 844.867188 2119.171875 C 844.867188 2143.867188 824.800781 2163.546875 800.492188 2163.546875 L 487.5625 2163.546875 C 462.867188 2163.546875 443.1875 2143.480469 443.1875 2119.171875 L 443.1875 1228.226562 L 354.054688 1228.226562 L 354.054688 2119.171875 C 354.054688 2192.871094 413.863281 2252.679688 487.5625 2252.679688 L 799.335938 2252.679688 C 873.035156 2252.679688 932.84375 2192.871094 932.84375 2119.171875 L 932.84375 1656.914062 C 932.84375 1632.21875 952.90625 1612.539062 977.214844 1612.539062 L 1155.484375 1612.539062 C 1180.175781 1612.539062 1199.855469 1632.605469 1199.855469 1656.914062 L 1199.855469 2119.171875 C 1199.855469 2192.871094 1259.664062 2252.679688 1333.363281 2252.679688 L 1645.136719 2252.679688 C 1718.835938 2252.679688 1778.644531 2192.871094 1778.644531 2119.171875 L 1778.644531 1228.226562 L 1689.511719 1228.226562 Z M 1690.667969 2119.171875 " fill-opacity="1" fill-rule="nonzero"/><g clip-path="url(#86d5d19c8c)"><path fill="#ffffff" d="M 1153.554688 441.84375 C 1103.003906 398.628906 1030.078125 398.628906 979.53125 441.84375 L 102.089844 1194.269531 L 159.96875 1261.796875 L 1037.796875 509.371094 C 1054.773438 495.09375 1079.082031 495.09375 1095.675781 509.371094 L 1973.503906 1261.796875 L 2031.382812 1194.269531 Z M 1153.554688 441.84375 " fill-opacity="1" fill-rule="nonzero"/></g><path fill="#ffffff" d="M 974.492188 1082.433594 C 958.261719 1082.433594 944.332031 1092.101562 937.902344 1105.929688 C 932.335938 1101.316406 926.382812 1097.082031 919.773438 1093.667969 C 914.808594 1091.089844 908.710938 1093.046875 906.152344 1098.003906 C 903.597656 1102.960938 905.53125 1109.058594 910.496094 1111.621094 C 937.5 1125.582031 954.277344 1153.121094 954.277344 1183.5 C 954.277344 1189.082031 958.800781 1193.609375 964.386719 1193.609375 C 969.972656 1193.609375 974.492188 1189.082031 974.492188 1183.5 C 974.492188 1161.171875 967.082031 1140.179688 954.242188 1123.035156 C 954.246094 1122.972656 954.277344 1122.921875 954.277344 1122.863281 C 954.277344 1111.714844 963.347656 1102.648438 974.492188 1102.648438 C 980.078125 1102.648438 984.597656 1098.125 984.597656 1092.542969 C 984.597656 1086.960938 980.078125 1082.433594 974.492188 1082.433594 Z M 974.492188 1082.433594 " fill-opacity="1" fill-rule="nonzero"/><g clip-path="url(#17bff808ad)"><path fill="#ffffff" d="M 1349.71875 1052.117188 C 1330.933594 1052.117188 1315.246094 1065.050781 1310.730469 1082.433594 L 1076.839844 1082.433594 L 1076.839844 1001.582031 L 1188.015625 1001.582031 C 1191.84375 1001.582031 1195.335938 999.421875 1197.054688 995.996094 L 1214.472656 961.15625 L 1250.089844 961.15625 C 1254.609375 978.542969 1270.292969 991.476562 1289.078125 991.476562 C 1311.375 991.476562 1329.507812 973.339844 1329.507812 951.050781 C 1329.507812 928.757812 1311.375 910.621094 1289.078125 910.621094 C 1270.292969 910.621094 1254.609375 923.558594 1250.089844 940.941406 L 1208.226562 940.941406 C 1204.398438 940.941406 1200.902344 943.105469 1199.1875 946.527344 L 1181.765625 981.371094 L 1076.839844 981.371094 L 1076.839844 910.621094 L 1167.800781 910.621094 C 1171.421875 910.621094 1174.777344 908.679688 1176.574219 905.53125 L 1210.746094 845.730469 C 1216.113281 848.367188 1222.066406 849.984375 1228.441406 849.984375 C 1250.734375 849.984375 1268.867188 831.847656 1268.867188 809.558594 C 1268.867188 787.265625 1250.734375 769.128906 1228.441406 769.128906 C 1206.144531 769.128906 1188.015625 787.265625 1188.015625 809.558594 C 1188.015625 818.019531 1190.644531 825.863281 1195.105469 832.363281 L 1161.9375 890.410156 L 1076.839844 890.410156 L 1076.839844 779.238281 C 1076.839844 773.65625 1072.320312 769.128906 1066.734375 769.128906 C 1036.679688 769.128906 1009.628906 785.523438 995.613281 811.558594 C 989.039062 810.226562 982.398438 809.558594 975.773438 809.558594 C 930.976562 809.558594 892.40625 838.320312 879.359375 880.453125 C 826.148438 883.292969 783.75 927.46875 783.75 981.371094 C 783.75 990.675781 785.0625 999.925781 787.65625 1008.964844 C 760.121094 1027.683594 743.324219 1058.988281 743.324219 1092.542969 C 743.324219 1126.09375 760.121094 1157.402344 787.65625 1176.117188 C 785.0625 1185.160156 783.75 1194.40625 783.75 1203.714844 C 783.75 1257.613281 826.148438 1301.789062 879.359375 1304.632812 C 892.40625 1346.761719 930.976562 1375.527344 975.773438 1375.527344 C 982.398438 1375.527344 989.039062 1374.855469 995.613281 1373.523438 C 1009.628906 1399.558594 1036.679688 1415.953125 1066.734375 1415.953125 C 1072.320312 1415.953125 1076.839844 1411.429688 1076.839844 1405.847656 L 1076.839844 1294.675781 L 1161.9375 1294.675781 L 1195.105469 1352.722656 C 1190.644531 1359.222656 1188.015625 1367.066406 1188.015625 1375.527344 C 1188.015625 1397.816406 1206.144531 1415.953125 1228.441406 1415.953125 C 1250.734375 1415.953125 1268.867188 1397.816406 1268.867188 1375.527344 C 1268.867188 1353.238281 1250.734375 1335.101562 1228.441406 1335.101562 C 1222.066406 1335.101562 1216.113281 1336.714844 1210.746094 1339.355469 L 1176.574219 1279.554688 C 1174.777344 1276.40625 1171.421875 1274.460938 1167.800781 1274.460938 L 1076.839844 1274.460938 L 1076.839844 1203.714844 L 1181.765625 1203.714844 L 1199.1875 1238.554688 C 1200.902344 1241.980469 1204.398438 1244.140625 1208.226562 1244.140625 L 1250.089844 1244.140625 C 1254.609375 1261.527344 1270.292969 1274.460938 1289.078125 1274.460938 C 1311.375 1274.460938 1329.507812 1256.324219 1329.507812 1234.035156 C 1329.507812 1211.742188 1311.375 1193.609375 1289.078125 1193.609375 C 1270.292969 1193.609375 1254.609375 1206.542969 1250.089844 1223.929688 L 1214.472656 1223.929688 L 1197.054688 1189.085938 C 1195.335938 1185.664062 1191.84375 1183.5 1188.015625 1183.5 L 1076.839844 1183.5 L 1076.839844 1102.648438 L 1310.730469 1102.648438 C 1315.246094 1120.035156 1330.933594 1132.96875 1349.71875 1132.96875 C 1372.015625 1132.96875 1390.144531 1114.832031 1390.144531 1092.542969 C 1390.144531 1070.25 1372.015625 1052.117188 1349.71875 1052.117188 Z M 1289.078125 930.835938 C 1300.222656 930.835938 1309.292969 939.902344 1309.292969 951.050781 C 1309.292969 962.199219 1300.222656 971.261719 1289.078125 971.261719 C 1277.9375 971.261719 1268.867188 962.199219 1268.867188 951.050781 C 1268.867188 939.902344 1277.9375 930.835938 1289.078125 930.835938 Z M 1228.441406 789.34375 C 1239.582031 789.34375 1248.652344 798.410156 1248.652344 809.558594 C 1248.652344 820.703125 1239.582031 829.769531 1228.441406 829.769531 C 1217.296875 829.769531 1208.226562 820.703125 1208.226562 809.558594 C 1208.226562 798.410156 1217.296875 789.34375 1228.441406 789.34375 Z M 1248.652344 1375.527344 C 1248.652344 1386.675781 1239.582031 1395.742188 1228.441406 1395.742188 C 1217.296875 1395.742188 1208.226562 1386.675781 1208.226562 1375.527344 C 1208.226562 1364.378906 1217.296875 1355.3125 1228.441406 1355.3125 C 1239.582031 1355.3125 1248.652344 1364.378906 1248.652344 1375.527344 Z M 1289.078125 1213.820312 C 1300.222656 1213.820312 1309.292969 1222.886719 1309.292969 1234.035156 C 1309.292969 1245.183594 1300.222656 1254.246094 1289.078125 1254.246094 C 1277.9375 1254.246094 1268.867188 1245.183594 1268.867188 1234.035156 C 1268.867188 1222.886719 1277.9375 1213.820312 1289.078125 1213.820312 Z M 1010.574219 1357.933594 C 1008.996094 1354.046875 1005.234375 1351.636719 1001.21875 1351.636719 C 1000.28125 1351.636719 999.335938 1351.765625 998.394531 1352.042969 C 990.933594 1354.214844 983.324219 1355.3125 975.773438 1355.3125 C 937.757812 1355.3125 905.34375 1329.414062 896.976562 1292.332031 C 896.953125 1292.226562 896.886719 1292.144531 896.859375 1292.042969 C 895.585938 1286.300781 894.921875 1280.390625 894.921875 1274.460938 C 894.921875 1258.382812 899.628906 1242.851562 908.53125 1229.550781 C 911.640625 1224.910156 910.398438 1218.632812 905.757812 1215.527344 C 901.128906 1212.429688 894.84375 1213.671875 891.734375 1218.308594 C 880.601562 1234.949219 874.707031 1254.363281 874.707031 1274.460938 C 874.707031 1277.632812 874.941406 1280.792969 875.234375 1283.945312 C 835.160156 1279.183594 803.960938 1245.050781 803.960938 1203.714844 C 803.960938 1194.113281 805.726562 1184.566406 809.191406 1175.339844 C 815.105469 1159.640625 825.894531 1145.851562 839.90625 1136.472656 C 844.546875 1133.367188 845.789062 1127.085938 842.679688 1122.453125 C 839.5625 1117.804688 833.285156 1116.570312 828.65625 1119.675781 C 814.660156 1129.046875 803.203125 1141.933594 795.378906 1156.75 C 775.515625 1141.5625 763.535156 1117.859375 763.535156 1092.542969 C 763.535156 1063.464844 779.316406 1036.492188 804.722656 1022.140625 C 805.246094 1021.84375 806.917969 1020.871094 807.316406 1020.664062 C 818.847656 1014.710938 831.320312 1011.6875 844.390625 1011.6875 C 868.914062 1011.6875 891.84375 1022.632812 907.277344 1041.722656 C 909.273438 1044.191406 912.195312 1045.472656 915.144531 1045.472656 C 917.375 1045.472656 919.617188 1044.738281 921.492188 1043.222656 C 925.835938 1039.714844 926.503906 1033.347656 922.992188 1029.011719 C 903.695312 1005.15625 875.042969 991.476562 844.390625 991.476562 C 831.238281 991.476562 818.1875 994.199219 806.074219 999.152344 C 804.726562 993.285156 803.960938 987.34375 803.960938 981.371094 C 803.960938 940.1875 834.925781 906.167969 875.230469 901.230469 C 874.941406 904.351562 874.707031 907.484375 874.707031 910.621094 C 874.707031 922.179688 876.644531 933.515625 880.472656 944.316406 C 881.933594 948.46875 885.832031 951.058594 889.996094 951.058594 C 891.113281 951.058594 892.257812 950.871094 893.371094 950.476562 C 898.632812 948.613281 901.386719 942.835938 899.519531 937.578125 C 896.472656 928.945312 894.921875 919.875 894.921875 910.621094 C 894.921875 904.691406 895.585938 898.777344 896.859375 893.035156 C 896.886719 892.933594 896.953125 892.855469 896.976562 892.753906 C 905.34375 855.667969 937.757812 829.769531 975.773438 829.769531 C 982.976562 829.769531 990.222656 830.839844 997.351562 832.816406 C 1007.945312 835.757812 1018.007812 840.789062 1026.59375 847.726562 C 1028.46875 849.242188 1030.710938 849.976562 1032.941406 849.976562 C 1035.890625 849.976562 1038.8125 848.695312 1040.808594 846.226562 C 1044.320312 841.890625 1043.648438 835.523438 1039.304688 832.015625 C 1032.085938 826.175781 1023.984375 821.492188 1015.457031 817.835938 C 1024.644531 803.132812 1039.535156 793.039062 1056.628906 790.183594 L 1056.628906 970.5625 C 1016.808594 965.5625 985.882812 931.5625 985.882812 890.410156 C 985.882812 884.828125 981.359375 880.304688 975.773438 880.304688 C 970.1875 880.304688 965.667969 884.828125 965.667969 890.410156 C 965.667969 901.828125 967.660156 912.769531 971.167969 923.015625 C 954.378906 928.128906 941.351562 941.535156 936.9375 958.632812 C 935.546875 964.039062 938.804688 969.550781 944.203125 970.941406 C 945.050781 971.160156 945.898438 971.261719 946.738281 971.261719 C 951.238281 971.261719 955.34375 968.238281 956.519531 963.679688 C 959.273438 952.992188 967.613281 944.648438 978.292969 941.894531 C 978.761719 941.773438 979.113281 941.464844 979.550781 941.285156 C 995.496094 968.5 1023.722656 987.679688 1056.628906 990.964844 L 1056.628906 1214.472656 C 1034.089844 1217.320312 1013.5625 1229.5625 1000.378906 1248.460938 C 997.191406 1253.039062 998.308594 1259.339844 1002.886719 1262.535156 C 1004.652344 1263.761719 1006.667969 1264.347656 1008.660156 1264.347656 C 1011.859375 1264.347656 1014.996094 1262.839844 1016.960938 1260.027344 C 1026.351562 1246.5625 1040.730469 1237.6875 1056.628906 1234.988281 L 1056.628906 1394.902344 C 1036.109375 1391.472656 1018.640625 1377.71875 1010.574219 1357.933594 Z M 1349.71875 1112.753906 C 1338.578125 1112.753906 1329.507812 1103.691406 1329.507812 1092.542969 C 1329.507812 1081.394531 1338.578125 1072.328125 1349.71875 1072.328125 C 1360.863281 1072.328125 1369.933594 1081.394531 1369.933594 1092.542969 C 1369.933594 1103.691406 1360.863281 1112.753906 1349.71875 1112.753906 Z M 1349.71875 1112.753906 " fill-opacity="1" fill-rule="nonzero"/></g><path fill="#ffffff" d="M 1248.652344 860.089844 L 1268.867188 860.089844 L 1268.867188 880.304688 L 1248.652344 880.304688 Z M 1248.652344 860.089844 " fill-opacity="1" fill-rule="nonzero"/><path fill="#ffffff" d="M 1289.078125 860.089844 L 1349.71875 860.089844 L 1349.71875 880.304688 L 1289.078125 880.304688 Z M 1289.078125 860.089844 " fill-opacity="1" fill-rule="nonzero"/><path fill="#ffffff" d="M 1238.546875 1031.902344 L 1258.761719 1031.902344 L 1258.761719 1052.117188 L 1238.546875 1052.117188 Z M 1238.546875 1031.902344 " fill-opacity="1" fill-rule="nonzero"/><path fill="#ffffff" d="M 1157.695312 1031.902344 L 1218.332031 1031.902344 L 1218.332031 1052.117188 L 1157.695312 1052.117188 Z M 1157.695312 1031.902344 " fill-opacity="1" fill-rule="nonzero"/><path fill="#ffffff" d="M 1329.507812 1304.78125 L 1349.71875 1304.78125 L 1349.71875 1324.996094 L 1329.507812 1324.996094 Z M 1329.507812 1304.78125 " fill-opacity="1" fill-rule="nonzero"/><path fill="#ffffff" d="M 1248.652344 1304.78125 L 1309.292969 1304.78125 L 1309.292969 1324.996094 L 1248.652344 1324.996094 Z M 1248.652344 1304.78125 " fill-opacity="1" fill-rule="nonzero"/><path fill="#ffffff" d="M 1157.695312 1132.96875 L 1177.90625 1132.96875 L 1177.90625 1153.183594 L 1157.695312 1153.183594 Z M 1157.695312 1132.96875 " fill-opacity="1" fill-rule="nonzero"/><path fill="#ffffff" d="M 1198.121094 1132.96875 L 1258.761719 1132.96875 L 1258.761719 1153.183594 L 1198.121094 1153.183594 Z M 1198.121094 1132.96875 " fill-opacity="1" fill-rule="nonzero"/><g fill="#ffffff" fill-opacity="1"><g transform="translate(1853.718226, 2168.254908)"><g><path d="M 669.546875 -209.234375 L 669.546875 -523.082031 C 669.546875 -551.679688 659.257812 -576.261719 638.683594 -596.835938 C 618.109375 -617.414062 593.523438 -627.699219 564.929688 -627.699219 L 251.078125 -627.699219 C 222.484375 -627.699219 197.898438 -617.414062 177.324219 -596.835938 C 156.75 -576.261719 146.464844 -551.679688 146.464844 -523.082031 L 146.464844 -209.234375 C 146.464844 -180.636719 156.75 -156.054688 177.324219 -135.476562 C 197.898438 -114.902344 222.484375 -104.617188 251.078125 -104.617188 L 564.929688 -104.617188 C 593.523438 -104.617188 618.109375 -114.902344 638.683594 -135.476562 C 659.257812 -156.054688 669.546875 -180.636719 669.546875 -209.234375 Z M 774.164062 -523.082031 L 774.164062 -209.234375 C 774.164062 -170.875 764.746094 -135.828125 745.917969 -104.09375 C 727.085938 -72.359375 701.804688 -47.078125 670.070312 -28.246094 C 638.335938 -9.414062 603.289062 0 564.929688 0 L 251.078125 0 C 212.71875 0 177.671875 -9.414062 145.941406 -28.246094 C 114.207031 -47.078125 88.925781 -72.359375 70.09375 -104.09375 C 51.261719 -135.828125 41.847656 -170.875 41.847656 -209.234375 L 41.847656 -523.082031 C 41.847656 -561.441406 51.261719 -596.488281 70.09375 -628.222656 C 88.925781 -659.957031 114.207031 -685.238281 145.941406 -704.070312 C 177.671875 -722.902344 212.71875 -732.316406 251.078125 -732.316406 L 564.929688 -732.316406 C 601.894531 -732.316406 636.242188 -722.726562 667.976562 -703.546875 C 699.710938 -684.367188 725.339844 -659.085938 744.871094 -627.699219 C 764.398438 -596.316406 774.164062 -561.441406 774.164062 -523.082031 Z M 774.164062 -523.082031 "/></g></g></g><g fill="#ffffff" fill-opacity="1"><g transform="translate(2669.72619, 2168.254908)"><g><path d="M 470.773438 -92.0625 L 156.925781 -545.050781 L 156.925781 0 L 52.308594 0 L 52.308594 -732.316406 L 156.925781 -732.316406 L 470.773438 -279.328125 L 784.625 -732.316406 L 889.242188 -732.316406 L 889.242188 0 L 784.625 0 L 784.625 -545.050781 Z M 470.773438 -92.0625 "/></g></g></g><g clip-path="url(#a4e6b70349)"><g fill="#ffffff" fill-opacity="1"><g transform="translate(3611.273692, 2168.254908)"><g><path d="M 156.925781 -732.316406 L 156.925781 -104.617188 L 784.625 -104.617188 L 784.625 0 L 52.308594 0 L 52.308594 -732.316406 Z M 156.925781 -732.316406 "/></g></g></g></g></svg>