<svg xmlns="http://www.w3.org/2000/svg" xmlns:xlink="http://www.w3.org/1999/xlink" width="4166" zoomAndPan="magnify" viewBox="0 0 3124.5 2100.000016" height="2800" preserveAspectRatio="xMidYMid meet" version="1.0"><defs><g/><clipPath id="23549d69cd"><path d="M 1094.824219 462.0625 L 1521.492188 462.0625 L 1521.492188 888.730469 L 1094.824219 888.730469 Z M 1094.824219 462.0625 " clip-rule="nonzero"/></clipPath></defs><g fill="#1a5319" fill-opacity="1"><g transform="translate(120.258903, 1738.959003)"><g><path d="M 575.65625 0 L 433.71875 0 L 433.71875 -283.859375 L 221.328125 -283.859375 L 221.328125 0 L 79.40625 0 L 79.40625 -709.640625 L 221.328125 -709.640625 L 221.328125 -425.78125 L 433.71875 -425.78125 L 433.71875 -709.640625 L 575.65625 -709.640625 Z M 575.65625 0 "/></g></g></g><g fill="#1a5319" fill-opacity="1"><g transform="translate(776.298641, 1738.959003)"><g><path d="M 420.8125 9.921875 C 359.945312 9.921875 306.519531 -0.332031 260.53125 -20.84375 C 214.539062 -41.351562 176.328125 -68.976562 145.890625 -103.71875 C 115.460938 -138.457031 92.640625 -177.660156 77.421875 -221.328125 C 62.203125 -264.992188 54.59375 -309.820312 54.59375 -355.8125 C 54.59375 -401.800781 62.203125 -446.628906 77.421875 -490.296875 C 92.640625 -533.960938 115.460938 -573.164062 145.890625 -607.90625 C 176.328125 -642.644531 214.539062 -670.269531 260.53125 -690.78125 C 306.519531 -711.289062 359.945312 -721.546875 420.8125 -721.546875 C 481.6875 -721.546875 535.117188 -711.289062 581.109375 -690.78125 C 627.097656 -670.269531 665.304688 -642.644531 695.734375 -607.90625 C 726.171875 -573.164062 749 -533.960938 764.21875 -490.296875 C 779.4375 -446.628906 787.046875 -401.800781 787.046875 -355.8125 C 787.046875 -309.820312 779.4375 -264.992188 764.21875 -221.328125 C 749 -177.660156 726.171875 -138.457031 695.734375 -103.71875 C 665.304688 -68.976562 627.097656 -41.351562 581.109375 -20.84375 C 535.117188 -0.332031 481.6875 9.921875 420.8125 9.921875 Z M 420.8125 -136.96875 C 461.175781 -136.96875 495.914062 -144.90625 525.03125 -160.78125 C 554.144531 -176.664062 577.300781 -197.675781 594.5 -223.8125 C 611.707031 -249.945312 623.285156 -278.5625 629.234375 -309.65625 C 635.191406 -340.757812 635.191406 -371.859375 629.234375 -402.953125 C 623.285156 -434.054688 611.707031 -462.675781 594.5 -488.8125 C 577.300781 -514.945312 554.144531 -535.953125 525.03125 -551.828125 C 495.914062 -567.710938 461.175781 -575.65625 420.8125 -575.65625 C 380.457031 -575.65625 345.722656 -567.710938 316.609375 -551.828125 C 287.492188 -535.953125 264.332031 -514.945312 247.125 -488.8125 C 229.925781 -462.675781 218.347656 -434.054688 212.390625 -402.953125 C 206.441406 -371.859375 206.441406 -340.757812 212.390625 -309.65625 C 218.347656 -278.5625 229.925781 -249.945312 247.125 -223.8125 C 264.332031 -197.675781 287.492188 -176.664062 316.609375 -160.78125 C 345.722656 -144.90625 380.457031 -136.96875 420.8125 -136.96875 Z M 420.8125 -136.96875 "/></g></g></g><g fill="#1a5319" fill-opacity="1"><g transform="translate(1616.942559, 1738.959003)"><g><path d="M 404.9375 -408.90625 L 684.828125 -720.5625 L 729.484375 -720.5625 L 729.484375 0 L 585.578125 0 L 586.5625 -396 L 404.9375 -205.453125 L 223.3125 -396 L 223.3125 0 L 79.40625 0 L 79.40625 -720.5625 L 125.0625 -720.5625 Z M 404.9375 -408.90625 "/></g></g></g><g fill="#1a5319" fill-opacity="1"><g transform="translate(2426.819148, 1738.959003)"><g><path d="M 79.40625 -709.640625 L 221.328125 -709.640625 L 221.328125 -141.921875 L 446.625 -141.921875 L 446.625 0 L 79.40625 0 Z M 79.40625 -709.640625 "/></g></g></g><path fill="#1a5319" d="M 48.019531 1064.828125 L 1321.820312 240.757812 C 1321.820312 240.757812 2595.617188 1064.828125 2595.617188 1064.828125 C 2608.800781 1073.355469 2626.4375 1069.582031 2634.964844 1056.398438 C 2643.496094 1043.21875 2639.71875 1025.582031 2626.515625 1017.050781 C 2626.515625 1017.050781 1337.277344 182.992188 1337.277344 182.992188 C 1327.871094 176.898438 1315.765625 176.898438 1306.378906 182.992188 C 1306.378906 182.992188 17.121094 1017.050781 17.121094 1017.050781 C 3.9375 1025.582031 0.164062 1043.21875 8.691406 1056.398438 C 17.21875 1069.582031 34.835938 1073.355469 48.019531 1064.828125 Z M 48.019531 1064.828125 " fill-opacity="1" fill-rule="evenodd"/><path fill="#1a5319" d="M 1636.746094 409.261719 L 1871.042969 257.667969 C 1871.042969 257.667969 3075.347656 1047.71875 3075.347656 1047.71875 C 3088.472656 1056.335938 3106.128906 1052.671875 3114.746094 1039.527344 C 3123.34375 1026.398438 3119.679688 1008.761719 3106.554688 1000.144531 C 3106.554688 1000.144531 1886.765625 199.929688 1886.765625 199.929688 C 1877.339844 193.742188 1865.171875 193.707031 1855.707031 199.820312 C 1855.707031 199.820312 1751.980469 266.925781 1605.832031 361.484375 C 1592.652344 370.011719 1588.859375 387.628906 1597.402344 400.832031 C 1605.925781 414.011719 1623.5625 417.785156 1636.746094 409.261719 Z M 1636.746094 409.261719 " fill-opacity="1" fill-rule="evenodd"/><path fill="#1a5319" d="M 739.917969 591.65625 L 739.917969 376.761719 C 739.917969 361.140625 727.191406 348.441406 711.558594 348.441406 L 474.53125 348.441406 C 458.796875 348.441406 446.171875 361.140625 446.171875 376.761719 L 446.171875 755.015625 C 446.171875 770.636719 458.796875 783.339844 474.53125 783.339844 C 490.167969 783.339844 502.894531 770.636719 502.894531 755.015625 L 502.894531 405.085938 C 502.894531 405.085938 683.195312 405.085938 683.195312 405.085938 L 683.195312 591.65625 C 683.195312 607.277344 695.921875 619.976562 711.558594 619.976562 C 727.191406 619.976562 739.917969 607.277344 739.917969 591.65625 Z M 739.917969 591.65625 " fill-opacity="1" fill-rule="evenodd"/><path fill="#1a5319" d="M 1371.90625 699.703125 C 1367.078125 699.703125 1362.480469 701.152344 1358.578125 703.820312 C 1354.53125 700.832031 1349.699219 699.148438 1344.578125 699.148438 C 1338.238281 699.148438 1332.28125 701.617188 1327.804688 706.097656 C 1325.722656 708.179688 1325.722656 711.558594 1327.804688 713.636719 C 1329.886719 715.71875 1333.265625 715.71875 1335.339844 713.636719 C 1340.277344 708.703125 1348.875 708.699219 1353.8125 713.636719 C 1356.277344 716.101562 1357.636719 719.382812 1357.636719 722.871094 C 1357.636719 726.359375 1356.277344 729.640625 1353.8125 732.105469 C 1351.730469 734.1875 1351.730469 737.5625 1353.8125 739.644531 C 1354.851562 740.683594 1356.214844 741.207031 1357.578125 741.207031 C 1358.945312 741.207031 1360.308594 740.683594 1361.347656 739.644531 C 1365.828125 735.160156 1368.296875 729.207031 1368.296875 722.871094 C 1368.296875 719.046875 1367.296875 715.40625 1365.597656 712.097656 C 1370.542969 709.460938 1377.074219 710.121094 1381.140625 714.1875 C 1382.183594 715.230469 1383.546875 715.75 1384.910156 715.75 C 1386.273438 715.75 1387.636719 715.230469 1388.679688 714.1875 C 1390.761719 712.109375 1390.761719 708.734375 1388.679688 706.652344 C 1384.199219 702.167969 1378.242188 699.703125 1371.90625 699.703125 Z M 1371.90625 699.703125 " fill-opacity="1" fill-rule="nonzero"/><path fill="#1a5319" d="M 1414.480469 684.347656 C 1413.175781 682.980469 1411.765625 681.710938 1410.269531 680.546875 C 1416.882812 675.8125 1421.15625 668.074219 1421.15625 659.566406 C 1421.15625 647.917969 1413.382812 638.019531 1402.746094 634.800781 C 1405.203125 626.414062 1404.773438 617.386719 1401.429688 608.769531 C 1397.515625 598.707031 1389.125 590.574219 1378.984375 587.015625 C 1370.671875 584.097656 1362.175781 583.824219 1354.339844 586.058594 C 1354.695312 581.898438 1354.035156 577.589844 1352.316406 573.414062 C 1349.667969 566.980469 1344.390625 561.957031 1337.835938 559.632812 C 1329.46875 556.65625 1320.65625 557.792969 1313.660156 562.730469 C 1311.476562 564.269531 1309.609375 566.152344 1308.027344 568.230469 C 1306.445312 566.152344 1304.578125 564.269531 1302.390625 562.730469 C 1295.398438 557.792969 1286.585938 556.65625 1278.21875 559.632812 C 1271.664062 561.957031 1266.386719 566.980469 1263.738281 573.414062 C 1262.019531 577.589844 1261.359375 581.898438 1261.714844 586.058594 C 1253.886719 583.824219 1245.386719 584.097656 1237.070312 587.015625 C 1226.929688 590.574219 1218.539062 598.707031 1214.625 608.769531 C 1211.28125 617.386719 1210.851562 626.414062 1213.308594 634.800781 C 1202.671875 638.019531 1194.894531 647.917969 1194.894531 659.566406 C 1194.894531 668.074219 1199.167969 675.8125 1205.78125 680.546875 C 1204.289062 681.710938 1202.878906 682.980469 1201.570312 684.347656 C 1194.550781 691.675781 1190.683594 701.300781 1190.683594 711.445312 C 1190.683594 728.464844 1201.53125 743.226562 1217.214844 748.554688 C 1215.738281 755.085938 1216.453125 761.855469 1219.351562 768.4375 C 1222.382812 775.3125 1228.15625 780.921875 1235.1875 783.820312 C 1243.496094 787.25 1252.121094 787.199219 1259.914062 783.757812 C 1265.867188 789.46875 1273.574219 792.507812 1281.65625 792.503906 C 1285.734375 792.503906 1289.914062 791.730469 1294.003906 790.136719 C 1299.796875 787.878906 1304.636719 783.800781 1308.027344 778.65625 C 1311.417969 783.800781 1316.257812 787.878906 1322.050781 790.136719 C 1326.140625 791.730469 1330.316406 792.503906 1334.398438 792.503906 C 1342.480469 792.503906 1350.1875 789.46875 1356.140625 783.757812 C 1363.9375 787.199219 1372.566406 787.246094 1380.863281 783.820312 C 1387.898438 780.921875 1393.671875 775.3125 1396.703125 768.4375 C 1399.601562 761.855469 1400.3125 755.085938 1398.839844 748.554688 C 1414.519531 743.226562 1425.371094 728.464844 1425.371094 711.445312 C 1425.371094 701.300781 1421.503906 691.675781 1414.484375 684.347656 C 1414.484375 684.347656 1414.484375 684.347656 1414.480469 684.347656 Z M 1290.136719 780.203125 C 1278.972656 784.550781 1269.960938 779.757812 1265.25 773.816406 C 1264.207031 772.503906 1262.652344 771.804688 1261.074219 771.804688 C 1260.113281 771.804688 1259.148438 772.0625 1258.277344 772.597656 C 1254.191406 775.117188 1247.585938 777.402344 1239.25 773.964844 C 1234.734375 772.105469 1231.039062 768.523438 1229.105469 764.140625 C 1225.898438 756.851562 1227.234375 750.785156 1228.921875 746.976562 C 1229.589844 745.480469 1229.527344 743.753906 1228.753906 742.308594 C 1227.980469 740.863281 1226.585938 739.847656 1224.96875 739.566406 C 1211.28125 737.171875 1201.34375 725.34375 1201.34375 711.445312 C 1201.34375 704.0625 1204.15625 697.058594 1209.265625 691.722656 C 1212.175781 688.683594 1215.777344 686.289062 1219.683594 684.785156 C 1221.941406 683.914062 1223.332031 681.628906 1223.066406 679.226562 C 1222.796875 676.816406 1220.941406 674.890625 1218.546875 674.539062 C 1211.019531 673.425781 1205.554688 667.128906 1205.554688 659.566406 C 1205.554688 651.21875 1212.351562 644.398438 1220.707031 644.359375 C 1222.550781 644.351562 1224.261719 643.390625 1225.226562 641.820312 C 1226.1875 640.246094 1226.273438 638.285156 1225.445312 636.636719 C 1222.820312 631.410156 1220.535156 623.003906 1224.5625 612.632812 C 1227.359375 605.433594 1233.355469 599.617188 1240.601562 597.074219 C 1250.546875 593.578125 1260.789062 595.179688 1268.691406 601.433594 C 1270.851562 603.148438 1273.953125 602.929688 1275.851562 600.945312 C 1277.753906 598.960938 1277.832031 595.851562 1276.035156 593.773438 C 1272.097656 589.214844 1271.207031 583.277344 1273.59375 577.476562 C 1275.070312 573.890625 1278.132812 570.972656 1281.785156 569.679688 C 1286.847656 567.875 1292.109375 568.519531 1296.246094 571.4375 C 1300.285156 574.289062 1302.695312 578.941406 1302.695312 583.878906 L 1302.695312 727.734375 C 1298 724.042969 1292.15625 721.746094 1285.726562 721.746094 C 1270.492188 721.746094 1258.097656 734.140625 1258.097656 749.371094 C 1258.097656 752.316406 1260.484375 754.703125 1263.429688 754.703125 C 1266.371094 754.703125 1268.757812 752.316406 1268.757812 749.371094 C 1268.757812 740.015625 1276.371094 732.40625 1285.726562 732.40625 C 1295.085938 732.40625 1302.695312 740.015625 1302.695312 749.371094 L 1302.695312 760.800781 C 1302.695312 769.480469 1297.648438 777.277344 1290.136719 780.203125 Z M 1391.085938 739.566406 C 1389.46875 739.847656 1388.074219 740.863281 1387.300781 742.308594 C 1386.527344 743.753906 1386.464844 745.480469 1387.132812 746.976562 C 1388.820312 750.785156 1390.15625 756.851562 1386.945312 764.140625 C 1385.015625 768.523438 1381.316406 772.105469 1376.800781 773.964844 C 1368.476562 777.402344 1361.859375 775.117188 1357.773438 772.597656 C 1355.476562 771.183594 1352.480469 771.703125 1350.804688 773.816406 C 1346.09375 779.753906 1337.089844 784.554688 1325.917969 780.203125 C 1318.40625 777.277344 1313.355469 769.480469 1313.355469 760.800781 L 1313.355469 654.273438 C 1318.054688 657.96875 1323.898438 660.261719 1330.324219 660.261719 C 1345.5625 660.261719 1357.953125 647.871094 1357.953125 632.632812 C 1357.953125 629.691406 1355.566406 627.304688 1352.625 627.304688 C 1349.679688 627.304688 1347.292969 629.691406 1347.292969 632.632812 C 1347.292969 641.988281 1339.683594 649.601562 1330.324219 649.601562 C 1320.96875 649.601562 1313.355469 641.988281 1313.355469 632.632812 L 1313.355469 583.878906 C 1313.355469 578.941406 1315.769531 574.289062 1319.808594 571.4375 C 1322.398438 569.609375 1325.433594 568.675781 1328.585938 568.675781 C 1330.460938 568.675781 1332.378906 569.007812 1334.269531 569.679688 C 1337.921875 570.972656 1340.984375 573.890625 1342.457031 577.476562 C 1344.847656 583.277344 1343.957031 589.214844 1340.019531 593.773438 C 1338.222656 595.851562 1338.300781 598.960938 1340.203125 600.945312 C 1342.101562 602.933594 1345.207031 603.144531 1347.363281 601.433594 C 1355.265625 595.171875 1365.503906 593.582031 1375.453125 597.074219 C 1382.695312 599.617188 1388.695312 605.433594 1391.492188 612.632812 C 1395.519531 623.003906 1393.234375 631.410156 1390.609375 636.636719 C 1389.78125 638.285156 1389.863281 640.246094 1390.828125 641.820312 C 1391.792969 643.390625 1393.503906 644.351562 1395.347656 644.359375 C 1403.703125 644.398438 1410.496094 651.21875 1410.496094 659.566406 C 1410.496094 667.128906 1405.035156 673.425781 1397.503906 674.539062 C 1395.113281 674.890625 1393.253906 676.816406 1392.988281 679.226562 C 1392.722656 681.628906 1394.113281 683.914062 1396.371094 684.785156 C 1400.273438 686.289062 1403.875 688.683594 1406.789062 691.722656 C 1411.898438 697.058594 1414.710938 704.0625 1414.710938 711.445312 C 1414.710938 725.34375 1404.773438 737.171875 1391.085938 739.566406 Z M 1391.085938 739.566406 " fill-opacity="1" fill-rule="nonzero"/><path fill="#1a5319" d="M 1268.351562 675.523438 C 1268.351562 678.46875 1270.738281 680.855469 1273.679688 680.855469 C 1276.625 680.855469 1279.011719 678.46875 1279.011719 675.523438 C 1279.011719 667.175781 1274.652344 659.855469 1268.117188 655.625 C 1268.140625 655.601562 1268.171875 655.582031 1268.199219 655.558594 C 1277.445312 646.308594 1277.445312 631.261719 1268.199219 622.011719 C 1266.117188 619.929688 1262.746094 619.929688 1260.664062 622.011719 C 1258.582031 624.089844 1258.582031 627.464844 1260.664062 629.546875 C 1265.753906 634.640625 1265.753906 642.925781 1260.664062 648.019531 C 1255.574219 653.109375 1247.28125 653.109375 1242.191406 648.019531 C 1240.109375 645.9375 1236.730469 645.9375 1234.652344 648.019531 C 1232.570312 650.101562 1232.570312 653.476562 1234.652344 655.558594 C 1239.277344 660.183594 1245.351562 662.492188 1251.425781 662.492188 C 1252.339844 662.492188 1253.242188 662.335938 1254.152344 662.230469 C 1254.53125 662.316406 1254.886719 662.460938 1255.289062 662.460938 C 1262.488281 662.460938 1268.351562 668.324219 1268.351562 675.523438 Z M 1268.351562 675.523438 " fill-opacity="1" fill-rule="nonzero"/><g clip-path="url(#23549d69cd)"><path fill="#1a5319" d="M 1515.898438 680.59375 C 1518.84375 680.59375 1521.230469 678.207031 1521.230469 675.265625 C 1521.230469 672.320312 1518.84375 669.933594 1515.898438 669.933594 L 1467.929688 669.933594 L 1467.929688 595.3125 L 1495.703125 595.3125 C 1497.761719 600.015625 1502.441406 603.308594 1507.902344 603.308594 C 1515.261719 603.308594 1521.230469 597.34375 1521.230469 589.984375 C 1521.230469 582.625 1515.261719 576.65625 1507.902344 576.65625 C 1502.441406 576.65625 1497.761719 579.949219 1495.703125 584.652344 L 1467.929688 584.652344 L 1467.929688 542.011719 C 1467.929688 527.320312 1455.972656 515.363281 1441.277344 515.363281 L 1398.660156 515.363281 L 1398.660156 467.390625 C 1398.660156 464.449219 1396.273438 462.0625 1393.332031 462.0625 C 1390.386719 462.0625 1388 464.449219 1388 467.390625 L 1388 515.363281 L 1313.378906 515.363281 L 1313.378906 467.390625 C 1313.378906 464.449219 1310.992188 462.0625 1308.050781 462.0625 C 1305.105469 462.0625 1302.71875 464.449219 1302.71875 467.390625 L 1302.71875 515.363281 L 1228.101562 515.363281 L 1228.101562 487.585938 C 1232.800781 485.53125 1236.09375 480.847656 1236.09375 475.386719 C 1236.09375 468.027344 1230.128906 462.0625 1222.769531 462.0625 C 1215.410156 462.0625 1209.445312 468.027344 1209.445312 475.386719 C 1209.445312 480.847656 1212.738281 485.527344 1217.441406 487.585938 L 1217.441406 515.363281 L 1174.777344 515.363281 C 1160.082031 515.363281 1148.125 527.320312 1148.125 542.011719 L 1148.125 584.652344 L 1100.15625 584.652344 C 1097.210938 584.652344 1094.824219 587.039062 1094.824219 589.984375 C 1094.824219 592.925781 1097.210938 595.3125 1100.15625 595.3125 L 1148.125 595.3125 L 1148.125 669.933594 L 1100.15625 669.933594 C 1097.210938 669.933594 1094.824219 672.320312 1094.824219 675.265625 C 1094.824219 678.207031 1097.210938 680.59375 1100.15625 680.59375 L 1148.125 680.59375 L 1148.125 755.214844 L 1120.351562 755.214844 C 1118.292969 750.511719 1113.613281 747.21875 1108.148438 747.21875 C 1100.789062 747.21875 1094.824219 753.183594 1094.824219 760.542969 C 1094.824219 767.902344 1100.789062 773.871094 1108.148438 773.871094 C 1113.613281 773.871094 1118.292969 770.578125 1120.351562 765.875 L 1148.125 765.875 L 1148.125 808.515625 C 1148.125 823.210938 1160.082031 835.164062 1174.777344 835.164062 L 1217.417969 835.164062 L 1217.417969 862.996094 C 1212.726562 865.0625 1209.445312 869.734375 1209.445312 875.183594 C 1209.445312 882.542969 1215.410156 888.511719 1222.769531 888.511719 C 1230.128906 888.511719 1236.09375 882.542969 1236.09375 875.183594 C 1236.09375 869.714844 1232.792969 865.023438 1228.078125 862.972656 L 1228.078125 835.164062 L 1302.695312 835.164062 L 1302.695312 883.136719 C 1302.695312 886.078125 1305.082031 888.464844 1308.027344 888.464844 C 1310.96875 888.464844 1313.355469 886.078125 1313.355469 883.136719 L 1313.355469 835.164062 L 1387.976562 835.164062 L 1387.976562 883.136719 C 1387.976562 886.078125 1390.363281 888.464844 1393.308594 888.464844 C 1396.25 888.464844 1398.636719 886.078125 1398.636719 883.136719 L 1398.636719 835.164062 L 1441.277344 835.164062 C 1455.972656 835.164062 1467.929688 823.210938 1467.929688 808.515625 L 1467.929688 765.875 L 1515.898438 765.875 C 1518.84375 765.875 1521.230469 763.488281 1521.230469 760.542969 C 1521.230469 757.601562 1518.84375 755.214844 1515.898438 755.214844 L 1467.929688 755.214844 L 1467.929688 680.59375 Z M 1457.269531 808.515625 C 1457.269531 817.332031 1450.097656 824.503906 1441.277344 824.503906 L 1174.777344 824.503906 C 1165.957031 824.503906 1158.785156 817.332031 1158.785156 808.515625 L 1158.785156 542.011719 C 1158.785156 533.195312 1165.957031 526.023438 1174.777344 526.023438 L 1441.277344 526.023438 C 1450.097656 526.023438 1457.269531 533.195312 1457.269531 542.011719 Z M 1457.269531 808.515625 " fill-opacity="1" fill-rule="nonzero"/></g></svg>